<?xml version="1.0" standalone="no"?>
<!DOCTYPE svg PUBLIC "-//W3C//DTD SVG 1.1//EN" "http://www.w3.org/Graphics/SVG/1.1/DTD/svg11.dtd" >
<svg>
<metadata>
Created by FontForge 20090622 at Mon Aug 24 02:54:23 2015
 By deploy user
[c] Copyright 2000-2003, The Font Bureau, Inc. Designed by Cyrus Highsmith, Tobias Frere-Jones, and Font Bureau. All rights reserved.
</metadata>
<defs>
<font id="BentonSans-ExtraCondensedRegular" horiz-adv-x="406" >
  <font-face 
    font-family="BentonSans"
    font-weight="400"
    font-stretch="condensed"
    units-per-em="1000"
    panose-1="2 0 6 6 4 0 0 2 0 4"
    ascent="800"
    descent="-200"
    x-height="528"
    cap-height="740"
    bbox="-77 -208 954 943"
    underline-thickness="20"
    underline-position="-113"
    unicode-range="U+0020-U+FB02"
  />
<missing-glyph horiz-adv-x="500" 
 />
    <glyph glyph-name=".notdef" horiz-adv-x="500" 
 />
    <glyph glyph-name=".null" horiz-adv-x="0" 
 />
    <glyph glyph-name="nonmarkingreturn" horiz-adv-x="333" 
 />
    <glyph glyph-name="space" unicode=" " horiz-adv-x="165" 
 />
    <glyph glyph-name="exclam" unicode="!" horiz-adv-x="240" 
d="M91 199l-14 541h87l-15 -541h-58zM76 0v98h88v-98h-88z" />
    <glyph glyph-name="quotedbl" unicode="&#x22;" horiz-adv-x="320" 
d="M206 488l-11 201v51h71v-51l-11 -201h-49zM66 488l-13 201v51h73v-51l-12 -201h-48z" />
    <glyph glyph-name="numbersign" unicode="#" horiz-adv-x="506" 
d="M75 0l32 217h-80v64h90l26 178h-86v64h96l32 217h69l-32 -217h107l31 217h69l-32 -217h82v-64h-91l-27 -178h87v-64h-96l-32 -217h-69l31 217h-106l-31 -217h-70zM186 279h107l27 182h-109z" />
    <glyph glyph-name="dollar" unicode="$" horiz-adv-x="464" 
d="M197 1q-60 9 -96 52.5t-62 129.5l68 17q35 -111 92 -132v285q-32 22 -53 40.5t-43 45.5t-33 61t-11 75q0 70 37.5 114.5t100.5 52.5v77h63v-79q55 -11 86 -50t54 -111l-68 -19q-29 89 -74 109v-269q47 -33 75 -58.5t52.5 -71t24.5 -98.5q0 -73 -40.5 -118.5t-109.5 -53.5
v-93h-63v94zM199 674q-31 -7 -48.5 -32t-17.5 -62q0 -45 15 -75t51 -61v230zM258 65q77 14 77 102q0 46 -18.5 78.5t-58.5 65.5v-246z" />
    <glyph glyph-name="percent" unicode="%" horiz-adv-x="702" 
d="M164 314q-125 0 -125 215q0 220 126 220q123 0 123 -217q0 -218 -124 -218zM163 0l310 740h66l-309 -740h-67zM539 -8q-124 0 -124 215q0 220 124 220t124 -216q0 -219 -124 -219zM164 372q56 0 56 159q0 158 -57 158q-56 0 -56 -156q0 -161 57 -161zM539 50q57 0 57 159
t-58 159q-56 0 -56 -157q0 -161 57 -161z" />
    <glyph glyph-name="ampersand" unicode="&#x26;" horiz-adv-x="517" 
d="M232 394q9 -19 45 -84q49 -82 83 -129q34 79 39 197h69q-15 -158 -61 -251q56 -56 99 -59v-72q-70 3 -138 69q-63 -73 -162 -73q-87 0 -134.5 46t-47.5 132q0 50 20 95.5t42.5 72t62.5 64.5q-42 99 -42 182q0 78 35.5 122t97.5 44q61 0 89.5 -37.5t28.5 -97.5
q0 -36 -9 -65.5t-32.5 -61t-36 -45t-48.5 -49.5zM207 455q42 43 62.5 76.5t20.5 78.5q0 77 -51 77q-30 0 -45 -26t-15 -69q0 -60 28 -137zM322 114q-42 52 -102 152q-28 46 -42 74q-78 -85 -78 -165q0 -54 27.5 -87t83.5 -33q66 0 111 59z" />
    <glyph glyph-name="quotesingle" unicode="'" horiz-adv-x="180" 
d="M66 488l-13 201v51h74v-51l-12 -201h-49z" />
    <glyph glyph-name="parenleft" unicode="(" horiz-adv-x="298" 
d="M216 -204q-176 210 -176 476q0 263 176 475l53 -36q-152 -202 -152 -439q0 -123 41 -237.5t111 -203.5z" />
    <glyph glyph-name="parenright" unicode=")" horiz-adv-x="298" 
d="M83 -204l-54 35q152 203 152 441q0 122 -41 236.5t-111 202.5l54 36q176 -210 176 -475q0 -264 -176 -476z" />
    <glyph glyph-name="asterisk" unicode="*" horiz-adv-x="427" 
d="M152 380l-58 35l91 129l-153 -15v65l154 -15l-93 132l59 34l62 -148l63 148l57 -34l-92 -132l154 15v-65l-153 15l90 -129l-56 -35l-63 147z" />
    <glyph glyph-name="plus" unicode="+" horiz-adv-x="455" 
d="M194 88v205h-152v68h152v204h68v-204h151v-68h-151v-205h-68z" />
    <glyph glyph-name="comma" unicode="," horiz-adv-x="210" 
d="M71 -105l26 105h-38v102h91v-94l-43 -113h-36z" />
    <glyph glyph-name="hyphen" unicode="-" horiz-adv-x="263" 
d="M40 280v67h182v-67h-182z" />
    <glyph glyph-name="period" unicode="." horiz-adv-x="210" 
d="M59 0v102h91v-102h-91z" />
    <glyph glyph-name="slash" unicode="/" horiz-adv-x="400" 
d="M11 0l302 740h76l-302 -740h-76z" />
    <glyph glyph-name="zero" unicode="0" horiz-adv-x="465" 
d="M232 -9q-100 0 -148.5 91t-48.5 288t48.5 288t148.5 91q101 0 148.5 -90.5t47.5 -288.5t-47.5 -288.5t-148.5 -90.5zM232 58q61 0 90 71t29 241q0 169 -29.5 239.5t-89.5 70.5q-61 0 -90 -70.5t-29 -239.5t29.5 -240.5t89.5 -71.5z" />
    <glyph glyph-name="one" unicode="1" horiz-adv-x="325" 
d="M38 0v69h99v588q-47 -34 -97 -34v69q66 3 99 48h73v-671h88v-69h-262z" />
    <glyph glyph-name="two" unicode="2" horiz-adv-x="417" 
d="M30 0v16q0 64 15 117t38.5 89.5t52 67.5t57.5 59t52.5 56.5t38.5 67t15 83.5q0 124 -88 124q-40 0 -64 -27.5t-39 -96.5l-70 11q36 182 178 182q75 0 116.5 -49.5t41.5 -139.5q0 -67 -27 -123.5t-65.5 -96.5l-77 -78.5t-65.5 -87.5t-27 -105h263v-69h-345z" />
    <glyph glyph-name="three" unicode="3" horiz-adv-x="425" 
d="M205 -10q-76 0 -119 40.5t-67 122.5l68 15q33 -112 117 -112q53 0 79 39.5t26 109.5q0 85 -32.5 120t-119.5 35h-22v65h28q78 0 106.5 31t28.5 105q0 122 -92 122q-67 0 -101 -91l-66 21q23 64 66.5 101t104.5 37q163 0 163 -184q0 -141 -108 -171q62 -19 90.5 -64
t28.5 -131q0 -95 -45.5 -153t-133.5 -58z" />
    <glyph glyph-name="four" unicode="4" horiz-adv-x="440" 
d="M264 0v178h-244v57l235 505h82v-495h86v-67h-86v-178h-73zM95 245h170v371h-1z" />
    <glyph glyph-name="five" unicode="5" horiz-adv-x="422" 
d="M206 -10q-73 0 -115 42.5t-64 121.5l68 18q33 -116 109 -116q109 0 109 189q0 180 -95 180q-68 0 -104 -87l-63 14l20 388h290l-1 -69h-224l-13 -243q34 63 115 63q152 0 152 -242q0 -127 -49 -193t-135 -66z" />
    <glyph glyph-name="six" unicode="6" horiz-adv-x="436" 
d="M226 -9q-191 0 -191 366q0 91 9.5 159.5t32 123t62.5 83t97 28.5q107 0 150 -121l-66 -23q-30 76 -88 76q-67 0 -94 -74.5t-27 -214.5q54 71 135 71q161 0 161 -229q0 -112 -46 -178.5t-135 -66.5zM227 57q105 0 105 176q0 165 -100 165q-70 0 -121 -75q4 -136 31.5 -201
t84.5 -65z" />
    <glyph glyph-name="seven" unicode="7" horiz-adv-x="391" 
d="M73 0l217 671h-259v69h335v-65l-216 -675h-77z" />
    <glyph glyph-name="eight" unicode="8" horiz-adv-x="437" 
d="M218 -14q-95 0 -143.5 52.5t-48.5 131.5q0 73 36.5 123t101.5 97q-56 43 -85.5 84t-29.5 106q0 75 44 124.5t125 49.5q84 0 126.5 -49t42.5 -125q0 -105 -114 -190q33 -24 52 -40t41.5 -42.5t33 -59.5t10.5 -75q0 -82 -49.5 -134.5t-142.5 -52.5zM224 429q89 72 89 149
q0 48 -22.5 79t-71.5 31q-48 0 -71 -30t-23 -77q0 -48 25.5 -82t73.5 -70zM218 51q55 0 85 33t30 92q0 54 -30 92.5t-88 81.5q-55 -43 -84 -82t-29 -95q0 -55 31 -88.5t85 -33.5z" />
    <glyph glyph-name="nine" unicode="9" horiz-adv-x="436" 
d="M201 -10q-108 0 -151 121l65 23q33 -78 90 -78q34 0 58 20.5t37.5 60.5t19 90.5t5.5 119.5q-55 -72 -135 -72q-161 0 -161 230q0 111 46.5 178t134.5 67q190 0 190 -366q0 -93 -9.5 -161.5t-31 -122.5t-61.5 -82t-97 -28zM204 343q71 0 121 75q-4 133 -31.5 199t-84.5 66
q-105 0 -105 -175q0 -79 22.5 -122t77.5 -43z" />
    <glyph glyph-name="colon" unicode=":" horiz-adv-x="212" 
d="M61 425v103h89v-103h-89zM61 0v102h89v-102h-89z" />
    <glyph glyph-name="semicolon" unicode=";" horiz-adv-x="212" 
d="M61 425v103h89v-103h-89zM72 -105l26 105h-37v102h89v-94l-43 -113h-35z" />
    <glyph glyph-name="less" unicode="&#x3c;" horiz-adv-x="455" 
d="M400 83l-357 212v58l357 212v-71l-288 -170l288 -170v-71z" />
    <glyph glyph-name="equal" unicode="=" horiz-adv-x="455" 
d="M41 404v64h372v-64h-372zM41 182v65h372v-65h-372z" />
    <glyph glyph-name="greater" unicode="&#x3e;" horiz-adv-x="455" 
d="M55 83v71l288 170l-288 170v71l358 -212v-58z" />
    <glyph glyph-name="question" unicode="?" horiz-adv-x="385" 
d="M141 198q0 50 2.5 79.5t16 59.5t22.5 43t41 56q27 37 40.5 68t13.5 73q0 47 -21 75t-63 28q-38 0 -61 -26t-42 -76l-67 18q49 153 174 153q77 0 116.5 -46t39.5 -122q0 -84 -71 -173q-50 -65 -61 -98t-11 -112h-69zM130 0v98h89v-98h-89z" />
    <glyph glyph-name="at" unicode="@" horiz-adv-x="620" 
d="M310 -14q-130 0 -204.5 99t-74.5 284q0 183 76.5 284t203.5 101q125 0 201 -100t76 -274q0 -223 -127 -223q-81 0 -98 74q-46 -74 -106 -74q-51 0 -77.5 45t-24.5 125q2 122 39 193t103 71q57 0 83 -55l5 46h60l-29 -291q-4 -49 8 -69.5t42 -20.5q76 0 76 180
q0 158 -63 245t-169 87q-107 0 -169.5 -87.5t-62.5 -254.5t63 -255t170 -88q83 0 150 39l19 -35q-72 -46 -170 -46zM272 214q40 0 81 54l22 216q-28 50 -70 50q-38 0 -61.5 -52.5t-24.5 -148.5q-1 -119 53 -119z" />
    <glyph glyph-name="A" unicode="A" horiz-adv-x="463" 
d="M140 217l-48 -217h-70l172 743h75l172 -743h-77l-47 217h-177zM303 280l-33 151q-32 155 -40 212h-3q-7 -51 -40 -211l-33 -152h149z" />
    <glyph glyph-name="B" unicode="B" horiz-adv-x="468" 
d="M62 0v740h151q103 0 152.5 -44.5t49.5 -141.5q0 -78 -28 -117t-78 -54v-2q124 -28 124 -180q0 -201 -206 -201h-165zM139 412h71q66 0 97 31t31 100q0 70 -28 99t-99 29h-72v-259zM139 66h88q70 0 99 34t29 106q0 73 -35 107.5t-107 34.5h-74v-282z" />
    <glyph glyph-name="C" unicode="C" horiz-adv-x="470" 
d="M250 -8q-105 0 -158.5 90.5t-53.5 287.5q0 379 211 379q87 0 130.5 -62.5t55.5 -177.5l-75 -9q-11 89 -37 133t-74 44q-133 0 -133 -306q0 -309 134 -309q51 0 79 44t40 140l75 -8q-16 -117 -61.5 -181.5t-132.5 -64.5z" />
    <glyph glyph-name="D" unicode="D" horiz-adv-x="484" 
d="M62 0v740h130q132 0 193 -84.5t61 -284.5q0 -199 -62 -285t-192 -86h-130zM140 68h63q89 0 126.5 72t37.5 231q0 157 -38 228t-127 71h-62v-602z" />
    <glyph glyph-name="E" unicode="E" 
d="M62 0v740h302v-70h-224v-244h161v-68h-161v-289h237v-69h-315z" />
    <glyph glyph-name="F" unicode="F" horiz-adv-x="387" 
d="M62 0v740h302v-70h-224v-247h162v-69h-162v-354h-78z" />
    <glyph glyph-name="G" unicode="G" horiz-adv-x="491" 
d="M242 -7q-103 0 -153.5 92t-50.5 286q0 378 211 378q81 0 124.5 -58.5t60.5 -181.5l-73 -10q-11 92 -37.5 135.5t-74.5 43.5q-133 0 -133 -306q0 -310 135 -310q61 0 89.5 54t30.5 167h-111v67h179v-350h-61v94h-1q-15 -45 -49.5 -73t-85.5 -28z" />
    <glyph glyph-name="H" unicode="H" horiz-adv-x="501" 
d="M62 0v740h78v-314h221v314h78v-740h-78v357h-221v-357h-78z" />
    <glyph glyph-name="I" unicode="I" horiz-adv-x="212" 
d="M67 0v740h78v-740h-78z" />
    <glyph glyph-name="J" unicode="J" horiz-adv-x="354" 
d="M148 -13q-85 0 -138 51l41 56q45 -39 90 -39q77 0 77 96v589h78v-587q0 -166 -148 -166z" />
    <glyph glyph-name="K" unicode="K" horiz-adv-x="457" 
d="M62 0v740h77v-388q14 40 75 151l128 237h77l-159 -293l184 -447h-80l-154 373l-71 -130v-243h-77z" />
    <glyph glyph-name="L" unicode="L" horiz-adv-x="389" 
d="M62 0v740h78v-671h225v-69h-303z" />
    <glyph glyph-name="M" unicode="M" horiz-adv-x="601" 
d="M62 0v740h98l139 -621h3l138 621h98v-740h-72v615h-1q-5 -34 -48 -224l-88 -391h-65l-89 400q-37 151 -46 214h-2v-614h-65z" />
    <glyph glyph-name="N" unicode="N" horiz-adv-x="501" 
d="M62 0v740h88l168 -428q44 -116 54 -146h1v574h66v-740h-68l-190 478q-34 81 -52 138h-2v-616h-65z" />
    <glyph glyph-name="O" unicode="O" horiz-adv-x="504" 
d="M253 -9q-102 0 -158.5 94t-56.5 285t56.5 285t158.5 94q101 0 158 -94.5t57 -284.5t-57 -284.5t-158 -94.5zM253 62q134 0 134 308q0 307 -134 307q-137 0 -137 -307q0 -308 137 -308z" />
    <glyph glyph-name="P" unicode="P" horiz-adv-x="444" 
d="M62 0v740h146q101 0 156 -49.5t55 -162.5q0 -123 -56.5 -172t-159.5 -49h-64v-307h-77zM139 374h71q69 0 100 35.5t31 115.5q0 78 -30.5 112t-101.5 34h-70v-297z" />
    <glyph glyph-name="Q" unicode="Q" horiz-adv-x="505" 
d="M382 -188q-92 0 -130 47t-38 137q-176 33 -176 374q0 191 56.5 285t158.5 94q101 0 158 -94.5t57 -284.5q0 -344 -181 -374q2 -66 27 -90.5t80 -24.5h34v-69h-46zM253 58q134 0 134 312q0 307 -134 307q-137 0 -137 -307q0 -312 137 -312z" />
    <glyph glyph-name="R" unicode="R" horiz-adv-x="465" 
d="M305 330l121 -330h-79l-116 313q-8 -1 -25 -1h-67v-312h-77v740h140q109 0 162.5 -51t53.5 -160q0 -151 -113 -199zM139 377h68q73 0 103.5 34.5t30.5 115.5q0 78 -31 111t-108 33h-63v-294z" />
    <glyph glyph-name="S" unicode="S" horiz-adv-x="442" 
d="M226 -11q-84 0 -131 49.5t-71 147.5l72 16q17 -72 47.5 -107.5t83.5 -35.5q50 0 76 28t26 76q0 41 -28.5 81.5t-69.5 76l-82.5 73t-70 87t-28.5 103.5q0 76 46.5 121.5t121.5 45.5q73 0 115 -46t65 -132l-71 -19q-17 65 -42.5 95.5t-68.5 30.5q-42 0 -65.5 -23.5
t-23.5 -67.5q0 -38 20.5 -74.5t51.5 -64l67.5 -60t67.5 -63t51.5 -73t20.5 -88.5q0 -79 -50 -128t-130 -49z" />
    <glyph glyph-name="T" unicode="T" horiz-adv-x="416" 
d="M168 0v670h-147v70h373v-70h-147v-670h-79z" />
    <glyph glyph-name="U" unicode="U" horiz-adv-x="487" 
d="M245 -8q-102 0 -144.5 62.5t-42.5 179.5v506h77v-494q0 -93 24 -139.5t87 -46.5q62 0 85.5 45.5t23.5 138.5v496h74v-504q0 -118 -42 -181t-142 -63z" />
    <glyph glyph-name="V" unicode="V" horiz-adv-x="454" 
d="M189 -3l-168 743h77l91 -426q26 -121 40 -209h2q6 40 39 208l92 427h71l-169 -743h-75z" />
    <glyph glyph-name="W" unicode="W" horiz-adv-x="656" 
d="M155 -1l-131 741h75l71 -442q15 -94 23 -168h2q10 80 24 168l71 442h73l73 -442q18 -112 24 -168h2q9 80 23 166l71 444h68l-132 -741h-67l-99 618h-3l-101 -618h-67z" />
    <glyph glyph-name="X" unicode="X" horiz-adv-x="448" 
d="M18 0l166 396l-143 344h79l109 -267l105 267h73l-143 -342l165 -398h-79l-130 318l-129 -318h-73z" />
    <glyph glyph-name="Y" unicode="Y" horiz-adv-x="420" 
d="M171 0v286l-160 454h79l122 -366h2l121 366h75l-161 -454v-286h-78z" />
    <glyph glyph-name="Z" unicode="Z" horiz-adv-x="421" 
d="M26 0v60l277 610h-256v70h343v-62l-278 -609h278v-69h-364z" />
    <glyph glyph-name="bracketleft" unicode="[" horiz-adv-x="279" 
d="M58 -200v940h193v-62h-116v-817h116v-61h-193z" />
    <glyph glyph-name="backslash" unicode="\" horiz-adv-x="400" 
d="M313 0l-302 740h76l302 -740h-76z" />
    <glyph glyph-name="bracketright" unicode="]" horiz-adv-x="279" 
d="M29 -200v61h116v817h-116v62h193v-940h-193z" />
    <glyph glyph-name="asciicircum" unicode="^" horiz-adv-x="370" 
d="M70 579l91 158h48l89 -158h-44l-70 82l-69 -82h-45z" />
    <glyph glyph-name="underscore" unicode="_" horiz-adv-x="359" 
d="M-5 -128v62h369v-62h-369z" />
    <glyph glyph-name="grave" unicode="`" horiz-adv-x="364" 
d="M179 583l-98 154h84l66 -154h-52z" />
    <glyph glyph-name="a" unicode="a" horiz-adv-x="390" 
d="M133 -5q-49 0 -76 34.5t-27 96.5q0 76 59.5 135t175.5 90v38q0 81 -60 81q-56 0 -118 -69l-46 47q77 88 173 88q66 0 95 -36.5t29 -110.5v-259q0 -93 11 -130h-75q-9 36 -9 64q-55 -69 -132 -69zM161 60q53 0 104 61v168q-85 -22 -124 -64t-39 -92q0 -73 59 -73z" />
    <glyph glyph-name="b" unicode="b" horiz-adv-x="418" 
d="M239 -6q-65 0 -112 71v-65h-74v739h74v-272q49 69 115 69q144 0 144 -270q0 -272 -147 -272zM222 60q88 0 88 205q0 202 -89 202q-43 0 -94 -62v-280q46 -65 95 -65z" />
    <glyph glyph-name="c" unicode="c" horiz-adv-x="375" 
d="M198 -8q-77 0 -121.5 69.5t-44.5 202.5q0 135 45 203.5t124 68.5q65 0 99 -41.5t50 -121.5l-69 -13q-13 58 -30 83.5t-52 25.5q-92 0 -92 -205q0 -207 94 -207q34 0 52 25.5t31 86.5l68 -12q-17 -82 -54 -123.5t-100 -41.5z" />
    <glyph glyph-name="d" unicode="d" horiz-adv-x="418" 
d="M177 -6q-144 0 -144 271t147 271q66 0 111 -69v273h75v-610q0 -93 11 -130h-78q-8 36 -8 63q-50 -69 -114 -69zM198 60q44 0 93 62v281q-48 64 -94 64q-88 0 -88 -201q0 -206 89 -206z" />
    <glyph glyph-name="e" unicode="e" horiz-adv-x="390" 
d="M200 -8q-79 0 -123.5 68.5t-44.5 203.5q0 136 45 204t124 68q81 0 118.5 -75t37.5 -196v-21h-252q2 -187 98 -187q37 0 57.5 23.5t34.5 72.5l61 -18q-37 -143 -156 -143zM106 303h179q-5 167 -85 167q-86 0 -94 -167z" />
    <glyph glyph-name="f" unicode="f" horiz-adv-x="250" 
d="M79 0v464h-64v64h64v88q0 125 127 125q19 0 31 -2v-65q-2 1 -24 1q-59 0 -59 -61v-86h79v-64h-79v-464h-75z" />
    <glyph glyph-name="g" unicode="g" horiz-adv-x="407" 
d="M302 484q37 39 85 49v-77q-30 0 -61 -12q18 -46 18 -98q0 -89 -42.5 -138.5t-111.5 -49.5q-31 0 -55 10q-22 -19 -22 -40q0 -16 9 -24t35 -12l80 -13q71 -11 104.5 -42t33.5 -90q0 -68 -53 -108.5t-141 -40.5q-83 0 -126.5 34t-43.5 94q0 80 74 119q-38 21 -38 66
q0 42 47 81q-59 53 -59 154q0 86 43.5 138t111.5 52q71 0 112 -52zM190 218q82 0 82 127q0 129 -82 129q-81 0 -81 -129q0 -127 81 -127zM135 30q-51 -33 -51 -91q0 -84 105 -84q55 0 85 23t30 61q0 33 -19 52t-68 26z" />
    <glyph glyph-name="h" unicode="h" horiz-adv-x="417" 
d="M53 0v740h74v-278q25 29 62 51.5t76 22.5q52 0 77 -31.5t25 -102.5v-402h-75v385q0 42 -12 61.5t-41 19.5q-48 0 -112 -64v-402h-74z" />
    <glyph glyph-name="i" unicode="i" horiz-adv-x="191" 
d="M57 625v90h77v-90h-77zM58 0v528h75v-528h-75z" />
    <glyph glyph-name="j" unicode="j" horiz-adv-x="191" 
d="M57 625v90h77v-90h-77zM32 -201q-25 0 -31 3v61q6 -2 22 -2q35 0 35 54v613h75v-609q0 -66 -23.5 -93t-77.5 -27z" />
    <glyph glyph-name="k" unicode="k" horiz-adv-x="380" 
d="M53 0v740h73v-491q7 16 57 114l89 165h73l-111 -197l128 -331h-75l-100 258l-61 -107v-151h-73z" />
    <glyph glyph-name="l" unicode="l" horiz-adv-x="191" 
d="M58 0v740h75v-740h-75z" />
    <glyph glyph-name="m" unicode="m" horiz-adv-x="641" 
d="M53 0v528h74v-66q63 74 132 74q79 0 96 -76q27 32 63 54t73 22q52 0 76.5 -32t24.5 -103v-401h-75v385q0 43 -11.5 62t-41.5 19q-44 0 -105 -64v-402h-74v385q0 43 -11.5 63t-40.5 20q-42 0 -106 -66v-402h-74z" />
    <glyph glyph-name="n" unicode="n" horiz-adv-x="417" 
d="M53 0v528h74v-66q25 29 62 51.5t76 22.5q52 0 77 -31.5t25 -102.5v-402h-75v385q0 42 -12 61.5t-41 19.5q-48 0 -112 -64v-402h-74z" />
    <glyph glyph-name="o" unicode="o" 
d="M204 -8q-81 0 -126.5 69.5t-45.5 202.5q0 134 45 203t127 69q80 0 125 -69t45 -203q0 -133 -45 -202.5t-125 -69.5zM204 56q94 0 94 208q0 206 -94 206q-97 0 -97 -206q0 -208 97 -208z" />
    <glyph glyph-name="p" unicode="p" horiz-adv-x="418" 
d="M53 -200v728h74v-61q49 69 115 69q144 0 144 -270q0 -272 -147 -272q-67 0 -112 69v-263h-74zM222 60q88 0 88 205q0 202 -89 202q-43 0 -94 -62v-280q46 -65 95 -65z" />
    <glyph glyph-name="q" unicode="q" horiz-adv-x="418" 
d="M290 -200l1 264q-51 -70 -114 -70q-144 0 -144 271t147 271q66 0 111 -69v61h74v-728h-75zM198 60q44 0 93 62v281q-49 65 -94 65q-44 0 -66 -47.5t-22 -154.5q0 -206 89 -206z" />
    <glyph glyph-name="r" unicode="r" horiz-adv-x="288" 
d="M53 0v528h74v-84h2q46 92 133 92h11l-5 -73h-15q-38 0 -73 -28t-53 -68v-367h-74z" />
    <glyph glyph-name="s" unicode="s" horiz-adv-x="361" 
d="M180 -10q-115 0 -166 126l63 27q34 -90 102 -90q39 0 59.5 19t20.5 51q0 31 -23 56.5t-55.5 45.5t-64.5 43t-55 58.5t-23 81.5q0 59 42 94.5t98 35.5q107 0 150 -120l-63 -25q-25 80 -86 80q-31 0 -49.5 -17.5t-18.5 -45.5q0 -31 23 -57t55.5 -46.5t64.5 -43t55 -58
t23 -80.5q0 -60 -41 -97.5t-111 -37.5z" />
    <glyph glyph-name="t" unicode="t" horiz-adv-x="276" 
d="M194 -4q-62 0 -89.5 25.5t-27.5 89.5v353h-63v64h63v188h75v-188h95v-64h-95v-334q0 -40 12.5 -56t44.5 -16q24 0 38 7v-63q-22 -6 -53 -6z" />
    <glyph glyph-name="u" unicode="u" horiz-adv-x="415" 
d="M152 -6q-53 0 -77.5 31t-24.5 102v401h74v-385q0 -42 12 -61.5t43 -19.5q44 0 108 64v402h75v-528h-75v67q-24 -29 -60.5 -51t-74.5 -22z" />
    <glyph glyph-name="v" unicode="v" horiz-adv-x="366" 
d="M143 -2l-127 530h73l71 -316q18 -82 25 -134h2q8 49 25 134l70 316h67l-127 -530h-79z" />
    <glyph glyph-name="w" unicode="w" horiz-adv-x="531" 
d="M125 -1l-109 529h71l56 -288q8 -44 19 -123h2l7 47t6.5 44t6.5 36l53 284h65l54 -285q3 -18 5.5 -36t6.5 -43.5t7 -48.5h3q5 39 20 124l55 289h62l-109 -529h-63l-76 407h-2l-77 -407h-63z" />
    <glyph glyph-name="x" unicode="x" horiz-adv-x="367" 
d="M16 0l129 275l-117 253h76l84 -189l81 189h70l-118 -253l128 -275h-76l-93 209l-93 -209h-71z" />
    <glyph glyph-name="y" unicode="y" horiz-adv-x="377" 
d="M70 -201q-37 0 -69 12l16 61q19 -7 49 -7q28 0 43 20.5t28 68.5l15 54l-136 520h75l71 -293q17 -78 27 -135h2q12 71 28 134l71 294h71l-155 -585q-20 -79 -49 -111.5t-87 -32.5z" />
    <glyph glyph-name="z" unicode="z" horiz-adv-x="349" 
d="M26 0v52l203 412h-185v64h270v-53l-205 -412h214v-63h-297z" />
    <glyph glyph-name="braceleft" unicode="{" horiz-adv-x="279" 
d="M212 -200q-112 0 -112 135v192q0 69 -17 91.5t-61 22.5v58q45 0 61.5 22.5t16.5 91.5v192q0 68 27 101.5t88 33.5h48v-62h-31q-29 0 -42 -17t-13 -55v-194q0 -68 -16 -97t-50 -44v-2q34 -15 50 -44t16 -97v-196q0 -37 13 -54t42 -17h31v-61h-51z" />
    <glyph glyph-name="bar" unicode="|" horiz-adv-x="262" 
d="M94 -200v940h74v-940h-74z" />
    <glyph glyph-name="braceright" unicode="}" horiz-adv-x="279" 
d="M16 -200v59h30q55 0 55 73v196q0 68 16 97t51 44v2q-35 15 -51 44t-16 97v194q0 74 -55 74h-30v60h48q62 0 88.5 -33.5t26.5 -101.5v-192q0 -69 16.5 -91.5t60.5 -22.5v-58q-44 0 -60.5 -22.5t-16.5 -91.5v-192q0 -135 -112 -135h-51z" />
    <glyph glyph-name="asciitilde" unicode="~" horiz-adv-x="367" 
d="M240 406q-26 0 -63 28t-49 28q-28 0 -28 -54h-47q0 119 74 119q26 0 62.5 -28t49.5 -28q27 0 27 54h47q0 -119 -73 -119z" />
    <glyph glyph-name="nbspace" unicode="&#xa0;" horiz-adv-x="82" 
 />
    <glyph glyph-name="exclamdown" unicode="&#xa1;" horiz-adv-x="240" 
d="M75 642v98h89v-98h-89zM76 0l14 541h58l15 -541h-87z" />
    <glyph glyph-name="cent" unicode="&#xa2;" horiz-adv-x="375" 
d="M165 -7q-62 15 -97.5 84.5t-35.5 186.5q0 119 35 187.5t98 83.5v102h61v-100q53 -8 81 -48.5t43 -112.5l-69 -13q-11 48 -23.5 74t-34.5 34v-417q23 8 36.5 34t24.5 78l68 -12q-29 -146 -126 -163v-120h-61v122zM168 466q-61 -35 -61 -202q0 -170 61 -205v407z" />
    <glyph glyph-name="sterling" unicode="&#xa3;" horiz-adv-x="450" 
d="M157 359h-98v60h76q-42 111 -42 161q0 80 40.5 124.5t109.5 44.5q139 0 148 -189l-71 -5q-3 62 -20.5 95.5t-57.5 33.5q-75 0 -75 -102q0 -46 43 -163h126v-60h-105q29 -89 29 -153q0 -61 -16 -109q37 -41 67 -41t43.5 32.5t13.5 107.5h68q0 -101 -28 -153t-94 -52
q-48 0 -96 54q-40 -54 -109 -54q-44 0 -74 26.5t-30 72.5q0 48 28 77.5t75 29.5q42 0 82 -40q2 28 2 47q0 57 -35 155zM176 96q-37 46 -67 46q-19 0 -30.5 -13t-11.5 -37q0 -20 12.5 -33t30.5 -13q45 0 66 50z" />
    <glyph glyph-name="currency" unicode="&#xa4;" horiz-adv-x="476" 
d="M264 -9q-81 0 -129 64.5t-60 214.5h-67v60h63v42v39h-63v60h67q24 278 188 278q74 0 114.5 -49t56.5 -154l-70 -10q-11 73 -33.5 108t-66.5 35q-100 0 -113 -208h159v-60h-162q-1 -12 -1 -38q0 -29 1 -43h162v-60h-159q8 -115 36.5 -163t76.5 -48q52 0 74.5 35.5
t34.5 116.5l69 -9q-7 -47 -18 -82t-31 -66t-52.5 -47t-76.5 -16z" />
    <glyph glyph-name="yen" unicode="&#xa5;" horiz-adv-x="423" 
d="M172 0v111h-130v60h130v81h-130v59h123l-152 429h79l121 -357h2l121 357h74l-154 -429h124v-59h-130v-81h130v-60h-130v-111h-78z" />
    <glyph glyph-name="brokenbar" unicode="&#xa6;" horiz-adv-x="262" 
d="M94 331v409h74v-409h-74zM94 -200v409h74v-409h-74z" />
    <glyph glyph-name="section" unicode="&#xa7;" horiz-adv-x="401" 
d="M125 455q-62 64 -62 141q0 70 39.5 114.5t106.5 44.5q74 0 108.5 -44.5t45.5 -130.5l-69 -13q-10 62 -29 91.5t-57 29.5q-34 0 -52.5 -24t-18.5 -64q0 -23 7 -42t25 -39t30.5 -31.5t42.5 -36.5q37 -30 53.5 -45t38.5 -40.5t30.5 -52t8.5 -60.5q0 -48 -27.5 -91.5
t-70.5 -70.5q61 -64 61 -141q0 -71 -38.5 -114.5t-104.5 -43.5q-74 0 -108 43.5t-45 130.5l70 13q10 -63 28 -92t56 -29q33 0 50.5 23.5t17.5 63.5q0 42 -23.5 73t-73.5 73q-74 61 -96 86q-41 51 -41 116q0 47 27 90t70 72zM227 135q73 47 73 111q0 28 -14.5 54t-31.5 42.5
t-56 49.5q-9 7 -23 19q-73 -49 -73 -112q0 -28 14.5 -53.5t32 -42.5t56.5 -50z" />
    <glyph glyph-name="dieresis" unicode="&#xa8;" horiz-adv-x="367" 
d="M213 583v86h74v-86h-74zM79 583v86h74v-86h-74z" />
    <glyph glyph-name="copyright" unicode="&#xa9;" horiz-adv-x="559" 
d="M280 -14q-111 0 -181.5 110.5t-70.5 272.5q0 163 71 274t181 111t180.5 -110.5t70.5 -272.5q0 -163 -70.5 -274t-180.5 -111zM280 28q91 0 148.5 98.5t57.5 242.5q0 145 -58 244t-148 99t-148.5 -98.5t-58.5 -242.5q0 -145 58.5 -244t148.5 -99zM281 159q-120 0 -120 217
t120 217q88 0 105 -137l-49 -6q-6 45 -19 68t-38 23q-67 0 -67 -165t67 -165q49 0 61 97l50 -7q-21 -142 -110 -142z" />
    <glyph glyph-name="ordfeminine" unicode="&#xaa;" horiz-adv-x="298" 
d="M110 363q-37 0 -57 25t-20 69q0 56 41 98t123 63v29q0 54 -37 54q-43 0 -73 -51l-45 22q39 79 121 79q48 0 70 -25.5t22 -79.5v-182q0 -64 9 -94l-60 1q-6 27 -7 38q-41 -46 -87 -46zM128 414q33 0 69 42v116q-106 -30 -106 -109q0 -49 37 -49z" />
    <glyph glyph-name="guillemotleft" unicode="&#xab;" horiz-adv-x="369" 
d="M272 0l-95 264l95 262h71l-93 -262l93 -264h-71zM121 0l-95 264l95 262h72l-93 -262l93 -264h-72z" />
    <glyph glyph-name="logicalnot" unicode="&#xac;" horiz-adv-x="780" 
d="M194 566v39l163 -10l-6 145h80l-8 -145l164 10v-39h38l-10 -163l145 6v-80l-145 8l10 -164h-38v-38l-164 10l8 -145h-80l6 145l-163 -10v38h-39l10 164l-145 -8v80l145 -6l-10 163h39zM559 538l-136 8v-143h143zM357 403v143l-135 -8l-8 -135h143zM423 337v-143l136 8
l7 135h-143zM222 202l135 -8v143h-143z" />
    <glyph glyph-name="registered" unicode="&#xae;" horiz-adv-x="559" 
d="M280 -14q-111 0 -181.5 110.5t-70.5 272.5q0 163 71 274t181 111t180.5 -110.5t70.5 -272.5q0 -163 -70.5 -274t-180.5 -111zM280 26q90 0 148.5 99t58.5 244t-58.5 245t-148.5 100t-149 -99.5t-59 -243.5q0 -145 59 -245t149 -100zM178 168v416h98q109 0 109 -122
q0 -93 -59 -115l65 -179h-56l-61 170h-43v-170h-53zM231 386h43q32 0 45.5 17t13.5 57q0 39 -13.5 56t-45.5 17h-43v-147z" />
    <glyph glyph-name="macron" unicode="&#xaf;" horiz-adv-x="364" 
d="M73 617v64h217v-64h-217z" />
    <glyph glyph-name="degree" unicode="&#xb0;" horiz-adv-x="283" 
d="M142 476q-48 0 -76 38.5t-28 99.5t28 99.5t76 38.5q47 0 74.5 -38.5t27.5 -99.5t-27.5 -99.5t-74.5 -38.5zM142 524q23 0 35.5 24t12.5 66t-12.5 67t-35.5 25q-49 0 -49 -92q0 -90 49 -90z" />
    <glyph glyph-name="plusminus" unicode="&#xb1;" horiz-adv-x="661" 
d="M524 0v740h75v-740h-75zM79 0v464h-64v64h64v88q0 125 125 125q16 0 28 -2v-65q-2 1 -22 1q-56 0 -56 -61v-86h147v86q0 63 32.5 95t91.5 32q16 0 28 -2v-64h-21q-56 0 -56 -61v-86h74v-64h-74v-464h-75v464h-147v-464h-75z" />
    <glyph glyph-name="twosuperior" unicode="&#xb2;" horiz-adv-x="286" 
d="M27 286v17q0 53 17 93.5t41.5 66t49 48.5t41.5 53t17 67q0 65 -46 65q-23 0 -36 -16.5t-23 -59.5l-58 12q27 122 119 122q51 0 79 -32t28 -90q0 -39 -16 -72.5t-39 -58t-46.5 -47t-41.5 -51t-20 -60.5h164v-57h-230z" />
    <glyph glyph-name="threesuperior" unicode="&#xb3;" horiz-adv-x="292" 
d="M142 277q-49 0 -77.5 27t-44.5 85l55 16q20 -71 66 -71q55 0 55 79q0 49 -17 70t-66 21h-21v52h24q42 0 58 18.5t16 58.5q0 65 -47 65q-38 0 -58 -58l-52 20q15 44 44 69t69 25q105 0 105 -118q0 -79 -53 -105q60 -26 60 -117q0 -61 -30.5 -99t-85.5 -38z" />
    <glyph glyph-name="acute" unicode="&#xb4;" horiz-adv-x="364" 
d="M129 583l66 154h84l-98 -154h-52z" />
    <glyph glyph-name="mu" unicode="&#xb5;" horiz-adv-x="418" 
d="M53 -200v728h74v-390q0 -42 12.5 -62t42.5 -20q44 0 108 64v408h75v-528h-75v65q-55 -64 -115 -68q-36 -2 -48 19v-216h-74z" />
    <glyph glyph-name="paragraph" unicode="&#xb6;" horiz-adv-x="457" 
d="M198 -200v539q-78 2 -120 52.5t-42 146.5q0 88 41.5 145t111.5 57h206v-940h-69v873h-60v-873h-68z" />
    <glyph glyph-name="periodcentered" unicode="&#xb7;" horiz-adv-x="272" 
d="M86 263v103h96v-103h-96z" />
    <glyph glyph-name="cedilla" unicode="&#xb8;" horiz-adv-x="364" 
d="M190 -196q-56 0 -101 36l21 34q38 -29 78 -29q46 0 46 42q0 33 -29 33q-19 0 -34 -18l-32 14l20 85h43l-11 -52q16 14 39 14q25 0 42.5 -17t17.5 -52q0 -44 -28 -67t-72 -23z" />
    <glyph glyph-name="onesuperior" unicode="&#xb9;" horiz-adv-x="274" 
d="M54 281v57h59v329q-30 -13 -58 -13v57q43 1 63 29h58v-402h53v-57h-175z" />
    <glyph glyph-name="ordmasculine" unicode="&#xba;" horiz-adv-x="302" 
d="M151 363q-58 0 -90 50t-32 144t32 144t90 50t90 -50t32 -144t-32 -144t-90 -50zM151 415q62 0 62 142t-62 142q-63 0 -63 -142t63 -142z" />
    <glyph glyph-name="guillemotright" unicode="&#xbb;" horiz-adv-x="369" 
d="M177 0l93 263l-93 263h71l94 -263l-94 -263h-71zM25 0l94 263l-94 263h72l96 -263l-96 -263h-72z" />
    <glyph glyph-name="onequarter" unicode="&#xbc;" horiz-adv-x="676" 
d="M54 281v57h59v329q-30 -13 -58 -13v57q43 1 63 29h58v-402h53v-57h-175zM164 0l310 740h67l-309 -740h-68zM536 0v108h-148v44l144 308h64v-297h51v-55h-51v-108h-60zM450 163h87v185h-2z" />
    <glyph glyph-name="onehalf" unicode="&#xbd;" horiz-adv-x="712" 
d="M54 281v57h59v329q-30 -13 -58 -13v57q43 1 63 29h58v-402h53v-57h-175zM164 0l310 740h67l-309 -740h-68zM441 0v18q0 44 12.5 80.5t31 59t40 45t40 40t31 44.5t12.5 58q0 65 -47 65q-23 0 -36 -16.5t-23 -59.5l-57 12q26 122 118 122q51 0 79 -31.5t28 -90.5
q0 -39 -16 -72.5t-39 -58t-46.5 -47t-41.5 -51t-20 -60.5h164v-57h-230z" />
    <glyph glyph-name="threequarters" unicode="&#xbe;" horiz-adv-x="686" 
d="M142 277q-49 0 -77.5 27t-44.5 85l55 16q20 -71 66 -71q55 0 55 79q0 49 -17 70t-66 21h-21v52h24q42 0 58 18.5t16 58.5q0 65 -47 65q-38 0 -58 -58l-52 20q15 44 44 69t69 25q105 0 105 -118q0 -79 -53 -105q60 -26 60 -117q0 -61 -30.5 -99t-85.5 -38zM173 0l310 740
h68l-310 -740h-68zM545 0v108h-147v44l144 308h64v-297h51v-55h-51v-108h-61zM460 163h86v185h-2z" />
    <glyph glyph-name="questiondown" unicode="&#xbf;" horiz-adv-x="385" 
d="M166 642v98h88v-98h-88zM188 -9q-77 0 -117 46t-40 122q0 50 18.5 89.5t53.5 83.5q50 65 60.5 98t10.5 112h69q1 -87 -12 -124.5t-58 -98.5q-7 -10 -11 -15q-28 -36 -41.5 -67.5t-13.5 -73.5q0 -47 21 -75t64 -28q38 0 60.5 26t41.5 76l67 -18q-48 -153 -173 -153z" />
    <glyph glyph-name="Agrave" unicode="&#xc0;" horiz-adv-x="463" 
d="M140 217l-48 -217h-70l172 743h75l172 -743h-77l-47 217h-177zM303 280l-33 151q-32 155 -40 212h-3q-7 -51 -40 -211l-33 -152h149zM215 787l-98 154h84l66 -154h-52z" />
    <glyph glyph-name="Aacute" unicode="&#xc1;" horiz-adv-x="463" 
d="M140 217l-48 -217h-70l172 743h75l172 -743h-77l-47 217h-177zM303 280l-33 151q-32 155 -40 212h-3q-7 -51 -40 -211l-33 -152h149zM198 787l66 154h84l-98 -154h-52z" />
    <glyph glyph-name="Acircumflex" unicode="&#xc2;" horiz-adv-x="463" 
d="M140 217l-48 -217h-70l172 743h75l172 -743h-77l-47 217h-177zM303 280l-33 151q-32 155 -40 212h-3q-7 -51 -40 -211l-33 -152h149zM114 783l91 158h51l90 -158h-47l-69 85l-67 -85h-49z" />
    <glyph glyph-name="Atilde" unicode="&#xc3;" horiz-adv-x="463" 
d="M140 217l-48 -217h-70l172 743h75l172 -743h-77l-47 217h-177zM303 280l-33 151q-32 155 -40 212h-3q-7 -51 -40 -211l-33 -152h149zM288 780q-26 0 -63 28t-49 28q-28 0 -28 -54h-47q0 119 74 119q26 0 62.5 -28t49.5 -28q27 0 27 54h47q0 -119 -73 -119z" />
    <glyph glyph-name="Adieresis" unicode="&#xc4;" horiz-adv-x="463" 
d="M140 217l-48 -217h-70l172 743h75l172 -743h-77l-47 217h-177zM303 280l-33 151q-32 155 -40 212h-3q-7 -51 -40 -211l-33 -152h149zM261 787v86h74v-86h-74zM127 787v86h74v-86h-74z" />
    <glyph glyph-name="Aring" unicode="&#xc5;" horiz-adv-x="463" 
d="M140 220l-48 -220h-70l166 713q-37 28 -37 89q0 44 21.5 73t57.5 29t58 -29t22 -73q0 -60 -35 -87l166 -715h-77l-48 220h-176zM230 743q33 0 33 59q0 56 -33 56q-32 0 -32 -56q0 -59 32 -59zM303 280l-33 151q-32 155 -40 212h-3q-7 -51 -40 -211l-33 -152h149z" />
    <glyph glyph-name="AE" unicode="&#xc6;" horiz-adv-x="657" 
d="M12 0l256 740h347v-70h-224v-245h160v-68h-160v-288h237v-69h-314v222h-148l-77 -222h-77zM189 288h125v374h-2z" />
    <glyph glyph-name="Ccedilla" unicode="&#xc7;" horiz-adv-x="470" 
d="M211 -4q-173 31 -173 374q0 379 211 379q87 0 130.5 -62.5t55.5 -177.5l-75 -9q-11 89 -37 133t-74 44q-133 0 -133 -306q0 -309 134 -309q51 0 79 44t40 140l75 -8q-16 -116 -60.5 -180t-129.5 -66l-8 -41q14 14 39 14t42.5 -17t17.5 -52q0 -44 -28 -66.5t-72 -22.5
q-58 0 -101 36l21 33q37 -28 78 -28q46 0 46 42q0 33 -29 33q-18 0 -34 -19l-32 15z" />
    <glyph glyph-name="Egrave" unicode="&#xc8;" 
d="M62 0v740h302v-70h-224v-244h161v-68h-161v-289h237v-69h-315zM200 787l-98 154h84l66 -154h-52z" />
    <glyph glyph-name="Eacute" unicode="&#xc9;" 
d="M62 0v740h302v-70h-224v-244h161v-68h-161v-289h237v-69h-315zM150 787l66 154h84l-98 -154h-52z" />
    <glyph glyph-name="Ecircumflex" unicode="&#xca;" 
d="M62 0v740h302v-70h-224v-244h161v-68h-161v-289h237v-69h-315zM86 783l91 158h51l90 -158h-47l-69 85l-67 -85h-49z" />
    <glyph glyph-name="Edieresis" unicode="&#xcb;" 
d="M62 0v740h302v-70h-224v-244h161v-68h-161v-289h237v-69h-315zM233 787v86h74v-86h-74zM99 787v86h74v-86h-74z" />
    <glyph glyph-name="Igrave" unicode="&#xcc;" horiz-adv-x="212" 
d="M67 0v740h78v-740h-78zM80 788l-98 154h84l66 -154h-52z" />
    <glyph glyph-name="Iacute" unicode="&#xcd;" horiz-adv-x="212" 
d="M67 0v740h78v-740h-78zM80 788l66 154h84l-98 -154h-52z" />
    <glyph glyph-name="Icircumflex" unicode="&#xce;" horiz-adv-x="212" 
d="M67 0v740h78v-740h-78zM-11 784l91 158h51l90 -158h-47l-69 85l-67 -85h-49z" />
    <glyph glyph-name="Idieresis" unicode="&#xcf;" horiz-adv-x="212" 
d="M67 0v740h78v-740h-78zM136 788v86h74v-86h-74zM2 788v86h74v-86h-74z" />
    <glyph glyph-name="Eth" unicode="&#xd0;" horiz-adv-x="485" 
d="M61 0v358h-51v68h51v314h132q132 0 193 -84.5t61 -284.5q0 -199 -62 -285t-192 -86h-132zM141 69h62q89 0 126.5 71.5t37.5 230.5q0 156 -38 227t-127 71h-61v-243h94v-68h-94v-289z" />
    <glyph glyph-name="Ntilde" unicode="&#xd1;" horiz-adv-x="501" 
d="M62 0v740h88l168 -428q44 -116 54 -146h1v574h66v-740h-68l-190 478q-34 81 -52 138h-2v-616h-65zM307 780q-26 0 -63 28t-49 28q-28 0 -28 -54h-47q0 119 74 119q26 0 62.5 -28t49.5 -28q27 0 27 54h47q0 -119 -73 -119z" />
    <glyph glyph-name="Ograve" unicode="&#xd2;" horiz-adv-x="504" 
d="M253 -9q-102 0 -158.5 94t-56.5 285t56.5 285t158.5 94q101 0 158 -94.5t57 -284.5t-57 -284.5t-158 -94.5zM253 62q134 0 134 308q0 307 -134 307q-137 0 -137 -307q0 -308 137 -308zM249 787l-98 154h84l66 -154h-52z" />
    <glyph glyph-name="Oacute" unicode="&#xd3;" horiz-adv-x="504" 
d="M253 -9q-102 0 -158.5 94t-56.5 285t56.5 285t158.5 94q101 0 158 -94.5t57 -284.5t-57 -284.5t-158 -94.5zM253 62q134 0 134 308q0 307 -134 307q-137 0 -137 -307q0 -308 137 -308zM199 787l66 154h84l-98 -154h-52z" />
    <glyph glyph-name="Ocircumflex" unicode="&#xd4;" horiz-adv-x="504" 
d="M253 -9q-102 0 -158.5 94t-56.5 285t56.5 285t158.5 94q101 0 158 -94.5t57 -284.5t-57 -284.5t-158 -94.5zM253 62q134 0 134 308q0 307 -134 307q-137 0 -137 -307q0 -308 137 -308zM135 783l91 158h51l90 -158h-47l-69 85l-67 -85h-49z" />
    <glyph glyph-name="Otilde" unicode="&#xd5;" horiz-adv-x="504" 
d="M253 -9q-102 0 -158.5 94t-56.5 285t56.5 285t158.5 94q101 0 158 -94.5t57 -284.5t-57 -284.5t-158 -94.5zM253 62q134 0 134 308q0 307 -134 307q-137 0 -137 -307q0 -308 137 -308zM308 780q-26 0 -63 28t-49 28q-28 0 -28 -54h-47q0 119 74 119q26 0 62.5 -28
t49.5 -28q27 0 27 54h47q0 -119 -73 -119z" />
    <glyph glyph-name="Odieresis" unicode="&#xd6;" horiz-adv-x="504" 
d="M253 -9q-102 0 -158.5 94t-56.5 285t56.5 285t158.5 94q101 0 158 -94.5t57 -284.5t-57 -284.5t-158 -94.5zM253 62q134 0 134 308q0 307 -134 307q-137 0 -137 -307q0 -308 137 -308zM281 787v86h74v-86h-74zM147 787v86h74v-86h-74z" />
    <glyph glyph-name="multiply" unicode="&#xd7;" horiz-adv-x="455" 
d="M274 326l140 -140l-45 -45l-140 140l-141 -140l-44 44l140 140l-140 141l45 44l140 -139l139 139l45 -45z" />
    <glyph glyph-name="Oslash" unicode="&#xd8;" horiz-adv-x="504" 
d="M423 631q45 -96 45 -261q0 -190 -57 -284.5t-158 -94.5q-86 0 -139 65l-49 -92l-51 25l66 123q-42 96 -42 258q0 191 56.5 285t158.5 94q84 0 136 -64l50 91l49 -25zM131 198l220 409q-33 70 -98 70q-138 0 -138 -307q0 -104 16 -172zM373 542l-220 -408q33 -73 100 -73
q136 0 136 309q0 105 -16 172z" />
    <glyph glyph-name="Ugrave" unicode="&#xd9;" horiz-adv-x="487" 
d="M245 -8q-102 0 -144.5 62.5t-42.5 179.5v506h77v-494q0 -93 24 -139.5t87 -46.5q62 0 85.5 45.5t23.5 138.5v496h74v-504q0 -118 -42 -181t-142 -63zM241 787l-98 154h84l66 -154h-52z" />
    <glyph glyph-name="Uacute" unicode="&#xda;" horiz-adv-x="487" 
d="M245 -8q-102 0 -144.5 62.5t-42.5 179.5v506h77v-494q0 -93 24 -139.5t87 -46.5q62 0 85.5 45.5t23.5 138.5v496h74v-504q0 -118 -42 -181t-142 -63zM191 787l66 154h84l-98 -154h-52z" />
    <glyph glyph-name="Ucircumflex" unicode="&#xdb;" horiz-adv-x="487" 
d="M245 -8q-102 0 -144.5 62.5t-42.5 179.5v506h77v-494q0 -93 24 -139.5t87 -46.5q62 0 85.5 45.5t23.5 138.5v496h74v-504q0 -118 -42 -181t-142 -63zM127 783l91 158h51l90 -158h-47l-69 85l-67 -85h-49z" />
    <glyph glyph-name="Udieresis" unicode="&#xdc;" horiz-adv-x="487" 
d="M245 -8q-102 0 -144.5 62.5t-42.5 179.5v506h77v-494q0 -93 24 -139.5t87 -46.5q62 0 85.5 45.5t23.5 138.5v496h74v-504q0 -118 -42 -181t-142 -63zM274 787v86h74v-86h-74zM140 787v86h74v-86h-74z" />
    <glyph glyph-name="Yacute" unicode="&#xdd;" horiz-adv-x="420" 
d="M171 0v286l-160 454h79l122 -366h2l121 366h75l-161 -454v-286h-78zM157 787l66 154h84l-98 -154h-52z" />
    <glyph glyph-name="Thorn" unicode="&#xde;" horiz-adv-x="446" 
d="M61 0v740h81v-127h86q193 0 193 -214q0 -123 -53.5 -172t-144.5 -49h-81v-178h-81zM142 248h84q59 0 87 34.5t28 114.5q0 77 -28 111t-88 34h-83v-294z" />
    <glyph glyph-name="germandbls" unicode="&#xdf;" horiz-adv-x="432" 
d="M250 -5q-51 0 -97 22l28 61q27 -16 64 -16q92 0 92 148q0 80 -35.5 121t-107.5 51v58q102 12 102 126q0 109 -81 109q-85 0 -85 -130v-545h-75v543q0 96 42.5 146.5t120.5 50.5q73 0 111.5 -44t38.5 -124q0 -56 -26 -97t-70 -58q138 -42 138 -209q0 -108 -43 -160.5
t-117 -52.5z" />
    <glyph glyph-name="agrave" unicode="&#xe0;" horiz-adv-x="390" 
d="M133 -5q-49 0 -76 34.5t-27 96.5q0 76 59.5 135t175.5 90v38q0 81 -60 81q-56 0 -118 -69l-46 47q77 88 173 88q66 0 95 -36.5t29 -110.5v-259q0 -93 11 -130h-75q-9 36 -9 64q-55 -69 -132 -69zM161 60q53 0 104 61v168q-85 -22 -124 -64t-39 -92q0 -73 59 -73zM192 583
l-98 154h84l66 -154h-52z" />
    <glyph glyph-name="aacute" unicode="&#xe1;" horiz-adv-x="390" 
d="M133 -5q-49 0 -76 34.5t-27 96.5q0 76 59.5 135t175.5 90v38q0 81 -60 81q-56 0 -118 -69l-46 47q77 88 173 88q66 0 95 -36.5t29 -110.5v-259q0 -93 11 -130h-75q-9 36 -9 64q-55 -69 -132 -69zM161 60q53 0 104 61v168q-85 -22 -124 -64t-39 -92q0 -73 59 -73zM142 583
l66 154h84l-98 -154h-52z" />
    <glyph glyph-name="acircumflex" unicode="&#xe2;" horiz-adv-x="390" 
d="M133 -5q-49 0 -76 34.5t-27 96.5q0 76 59.5 135t175.5 90v38q0 81 -60 81q-56 0 -118 -69l-46 47q77 88 173 88q66 0 95 -36.5t29 -110.5v-259q0 -93 11 -130h-75q-9 36 -9 64q-55 -69 -132 -69zM161 60q53 0 104 61v168q-85 -22 -124 -64t-39 -92q0 -73 59 -73zM78 579
l91 158h51l90 -158h-47l-69 85l-67 -85h-49z" />
    <glyph glyph-name="atilde" unicode="&#xe3;" horiz-adv-x="390" 
d="M133 -5q-49 0 -76 34.5t-27 96.5q0 76 59.5 135t175.5 90v38q0 81 -60 81q-56 0 -118 -69l-46 47q77 88 173 88q66 0 95 -36.5t29 -110.5v-259q0 -93 11 -130h-75q-9 36 -9 64q-55 -69 -132 -69zM161 60q53 0 104 61v168q-85 -22 -124 -64t-39 -92q0 -73 59 -73zM252 576
q-26 0 -63 28t-49 28q-28 0 -28 -54h-47q0 119 74 119q26 0 62.5 -28t49.5 -28q27 0 27 54h47q0 -119 -73 -119z" />
    <glyph glyph-name="adieresis" unicode="&#xe4;" horiz-adv-x="390" 
d="M133 -5q-49 0 -76 34.5t-27 96.5q0 76 59.5 135t175.5 90v38q0 81 -60 81q-56 0 -118 -69l-46 47q77 88 173 88q66 0 95 -36.5t29 -110.5v-259q0 -93 11 -130h-75q-9 36 -9 64q-55 -69 -132 -69zM161 60q53 0 104 61v168q-85 -22 -124 -64t-39 -92q0 -73 59 -73zM224 583
v86h74v-86h-74zM90 583v86h74v-86h-74z" />
    <glyph glyph-name="aring" unicode="&#xe5;" horiz-adv-x="390" 
d="M133 -5q-49 0 -76 34.5t-27 96.5q0 76 59.5 135t175.5 90v38q0 81 -60 81q-56 0 -118 -69l-46 47q77 88 173 88q66 0 95 -36.5t29 -110.5v-259q0 -93 11 -130h-75q-9 36 -9 64q-55 -69 -132 -69zM161 60q53 0 104 61v168q-85 -22 -124 -64t-39 -92q0 -73 59 -73zM194 566
q-36 0 -57 29t-21 74q0 44 21 72.5t57 28.5t58 -28.5t22 -72.5q0 -45 -21.5 -74t-58.5 -29zM194 610q33 0 33 58q0 57 -33 57q-32 0 -32 -57q0 -58 32 -58z" />
    <glyph glyph-name="ae" unicode="&#xe6;" horiz-adv-x="620" 
d="M294 86q-72 -92 -161 -92q-49 0 -76 34t-27 96q0 78 59.5 137t175.5 90v39q0 80 -60 80q-56 0 -118 -69l-46 47q77 88 174 88q78 0 101 -64q43 64 115 64q81 0 119 -74.5t38 -196.5v-21h-252q0 -187 97 -187q37 0 57.5 23.5t34.5 72.5l62 -18q-39 -143 -157 -143
q-94 0 -136 94zM336 303h179q-3 167 -85 167q-84 0 -94 -167zM265 289q-85 -21 -124 -63.5t-39 -93.5q0 -74 59 -74q57 0 118 75q-14 58 -14 131v25z" />
    <glyph glyph-name="ccedilla" unicode="&#xe7;" horiz-adv-x="375" 
d="M162 -3q-61 15 -95.5 82.5t-34.5 184.5q0 135 45 203.5t124 68.5q65 0 99 -41.5t50 -121.5l-69 -13q-13 58 -30 83.5t-52 25.5q-92 0 -92 -205q0 -207 94 -207q34 0 52 25.5t31 86.5l68 -12q-17 -81 -52 -122t-95 -43l-8 -42q14 14 39 14q24 0 41.5 -17t17.5 -52
q0 -44 -28 -66.5t-72 -22.5q-58 0 -101 36l21 33q39 -28 78 -28q46 0 46 42q0 33 -29 33q-17 0 -34 -19l-31 15z" />
    <glyph glyph-name="egrave" unicode="&#xe8;" horiz-adv-x="390" 
d="M200 -8q-79 0 -123.5 68.5t-44.5 203.5q0 136 45 204t124 68q81 0 118.5 -75t37.5 -196v-21h-252q2 -187 98 -187q37 0 57.5 23.5t34.5 72.5l61 -18q-37 -143 -156 -143zM106 303h179q-5 167 -85 167q-86 0 -94 -167zM191 583l-98 154h84l66 -154h-52z" />
    <glyph glyph-name="eacute" unicode="&#xe9;" horiz-adv-x="390" 
d="M200 -8q-79 0 -123.5 68.5t-44.5 203.5q0 136 45 204t124 68q81 0 118.5 -75t37.5 -196v-21h-252q2 -187 98 -187q37 0 57.5 23.5t34.5 72.5l61 -18q-37 -143 -156 -143zM106 303h179q-5 167 -85 167q-86 0 -94 -167zM141 583l66 154h84l-98 -154h-52z" />
    <glyph glyph-name="ecircumflex" unicode="&#xea;" horiz-adv-x="390" 
d="M200 -8q-79 0 -123.5 68.5t-44.5 203.5q0 136 45 204t124 68q81 0 118.5 -75t37.5 -196v-21h-252q2 -187 98 -187q37 0 57.5 23.5t34.5 72.5l61 -18q-37 -143 -156 -143zM106 303h179q-5 167 -85 167q-86 0 -94 -167zM77 579l91 158h51l90 -158h-47l-69 85l-67 -85h-49z
" />
    <glyph glyph-name="edieresis" unicode="&#xeb;" horiz-adv-x="390" 
d="M200 -8q-79 0 -123.5 68.5t-44.5 203.5q0 136 45 204t124 68q81 0 118.5 -75t37.5 -196v-21h-252q2 -187 98 -187q37 0 57.5 23.5t34.5 72.5l61 -18q-37 -143 -156 -143zM106 303h179q-5 167 -85 167q-86 0 -94 -167zM224 583v86h74v-86h-74zM90 583v86h74v-86h-74z" />
    <glyph glyph-name="igrave" unicode="&#xec;" horiz-adv-x="191" 
d="M58 0v528h75v-528h-75zM70 583l-98 154h84l66 -154h-52z" />
    <glyph glyph-name="iacute" unicode="&#xed;" horiz-adv-x="191" 
d="M58 0v528h75v-528h-75zM71 583l66 154h84l-98 -154h-52z" />
    <glyph glyph-name="icircumflex" unicode="&#xee;" horiz-adv-x="191" 
d="M58 0v528h75v-528h-75zM-21 579l91 158h51l90 -158h-47l-69 85l-67 -85h-49z" />
    <glyph glyph-name="idieresis" unicode="&#xef;" horiz-adv-x="191" 
d="M58 0v528h75v-528h-75zM125 583v86h74v-86h-74zM-9 583v86h74v-86h-74z" />
    <glyph glyph-name="eth" unicode="&#xf0;" 
d="M251 601l-70 -39l-26 47l67 37q-19 27 -52 58l43 44q40 -37 65 -70l69 38l26 -48l-64 -35q65 -111 65 -328q0 -315 -171 -315q-82 0 -126.5 70t-44.5 199q0 131 42.5 201t121.5 70q38 0 67 -23t44 -63q-15 85 -56 157zM202 55q96 0 96 205q0 207 -96 207q-95 0 -95 -207
q0 -205 95 -205z" />
    <glyph glyph-name="ntilde" unicode="&#xf1;" horiz-adv-x="417" 
d="M53 0v528h74v-66q25 29 62 51.5t76 22.5q52 0 77 -31.5t25 -102.5v-402h-75v385q0 42 -12 61.5t-41 19.5q-48 0 -112 -64v-402h-74zM265 576q-26 0 -63 28t-49 28q-28 0 -28 -54h-47q0 119 74 119q26 0 62.5 -28t49.5 -28q27 0 27 54h47q0 -119 -73 -119z" />
    <glyph glyph-name="ograve" unicode="&#xf2;" 
d="M204 -8q-81 0 -126.5 69.5t-45.5 202.5q0 134 45 203t127 69q80 0 125 -69t45 -203q0 -133 -45 -202.5t-125 -69.5zM204 56q94 0 94 208q0 206 -94 206q-97 0 -97 -206q0 -208 97 -208zM200 583l-98 154h84l66 -154h-52z" />
    <glyph glyph-name="oacute" unicode="&#xf3;" 
d="M204 -8q-81 0 -126.5 69.5t-45.5 202.5q0 134 45 203t127 69q80 0 125 -69t45 -203q0 -133 -45 -202.5t-125 -69.5zM204 56q94 0 94 208q0 206 -94 206q-97 0 -97 -206q0 -208 97 -208zM150 583l66 154h84l-98 -154h-52z" />
    <glyph glyph-name="ocircumflex" unicode="&#xf4;" 
d="M204 -8q-81 0 -126.5 69.5t-45.5 202.5q0 134 45 203t127 69q80 0 125 -69t45 -203q0 -133 -45 -202.5t-125 -69.5zM204 56q94 0 94 208q0 206 -94 206q-97 0 -97 -206q0 -208 97 -208zM86 579l91 158h51l90 -158h-47l-69 85l-67 -85h-49z" />
    <glyph glyph-name="otilde" unicode="&#xf5;" 
d="M204 -8q-81 0 -126.5 69.5t-45.5 202.5q0 134 45 203t127 69q80 0 125 -69t45 -203q0 -133 -45 -202.5t-125 -69.5zM204 56q94 0 94 208q0 206 -94 206q-97 0 -97 -206q0 -208 97 -208zM260 576q-26 0 -63 28t-49 28q-28 0 -28 -54h-47q0 119 74 119q26 0 62.5 -28
t49.5 -28q27 0 27 54h47q0 -119 -73 -119z" />
    <glyph glyph-name="odieresis" unicode="&#xf6;" 
d="M204 -8q-81 0 -126.5 69.5t-45.5 202.5q0 134 45 203t127 69q80 0 125 -69t45 -203q0 -133 -45 -202.5t-125 -69.5zM204 56q94 0 94 208q0 206 -94 206q-97 0 -97 -206q0 -208 97 -208zM233 583v86h74v-86h-74zM99 583v86h74v-86h-74z" />
    <glyph glyph-name="divide" unicode="&#xf7;" horiz-adv-x="455" 
d="M190 456v94h74v-94h-74zM42 293v68h371v-68h-371zM190 103v93h74v-93h-74z" />
    <glyph glyph-name="oslash" unicode="&#xf8;" 
d="M333 461q41 -70 41 -197q0 -133 -45 -202.5t-125 -69.5q-54 0 -91 30l-28 -55l-51 24l39 78q-41 71 -41 195q0 134 45 203t127 69q51 0 89 -29l28 54l50 -25zM117 147l146 293q-22 30 -59 30q-99 0 -99 -206q0 -68 12 -117zM289 380l-147 -292q24 -32 62 -32q96 0 96 208
q0 72 -11 116z" />
    <glyph glyph-name="ugrave" unicode="&#xf9;" horiz-adv-x="415" 
d="M152 -6q-53 0 -77.5 31t-24.5 102v401h74v-385q0 -42 12 -61.5t43 -19.5q44 0 108 64v402h75v-528h-75v67q-24 -29 -60.5 -51t-74.5 -22zM204 583l-98 154h84l66 -154h-52z" />
    <glyph glyph-name="uacute" unicode="&#xfa;" horiz-adv-x="415" 
d="M152 -6q-53 0 -77.5 31t-24.5 102v401h74v-385q0 -42 12 -61.5t43 -19.5q44 0 108 64v402h75v-528h-75v67q-24 -29 -60.5 -51t-74.5 -22zM154 583l66 154h84l-98 -154h-52z" />
    <glyph glyph-name="ucircumflex" unicode="&#xfb;" horiz-adv-x="415" 
d="M152 -6q-53 0 -77.5 31t-24.5 102v401h74v-385q0 -42 12 -61.5t43 -19.5q44 0 108 64v402h75v-528h-75v67q-24 -29 -60.5 -51t-74.5 -22zM91 579l91 158h51l90 -158h-47l-69 85l-67 -85h-49z" />
    <glyph glyph-name="udieresis" unicode="&#xfc;" horiz-adv-x="415" 
d="M152 -6q-53 0 -77.5 31t-24.5 102v401h74v-385q0 -42 12 -61.5t43 -19.5q44 0 108 64v402h75v-528h-75v67q-24 -29 -60.5 -51t-74.5 -22zM238 583v86h74v-86h-74zM104 583v86h74v-86h-74z" />
    <glyph glyph-name="yacute" unicode="&#xfd;" horiz-adv-x="377" 
d="M70 -201q-37 0 -69 12l16 61q19 -7 49 -7q28 0 43 20.5t28 68.5l15 54l-136 520h75l71 -293q17 -78 27 -135h2q12 71 28 134l71 294h71l-155 -585q-20 -79 -49 -111.5t-87 -32.5zM135 583l66 154h84l-98 -154h-52z" />
    <glyph glyph-name="thorn" unicode="&#xfe;" horiz-adv-x="418" 
d="M53 -200v940h74v-272q49 69 115 69q144 0 144 -272q0 -142 -39.5 -207.5t-107.5 -65.5q-67 0 -112 69v-261h-74zM222 58q88 0 88 206q0 205 -89 205q-45 0 -94 -63v-282q45 -66 95 -66z" />
    <glyph glyph-name="ydieresis" unicode="&#xff;" horiz-adv-x="377" 
d="M70 -201q-37 0 -69 12l16 61q19 -7 49 -7q28 0 43 20.5t28 68.5l15 54l-136 520h75l71 -293q17 -78 27 -135h2q12 71 28 134l71 294h71l-155 -585q-20 -79 -49 -111.5t-87 -32.5zM218 583v86h74v-86h-74zM84 583v86h74v-86h-74z" />
    <glyph glyph-name="dotlessi" unicode="&#x131;" horiz-adv-x="191" 
d="M58 0v528h75v-528h-75z" />
    <glyph glyph-name="Lslash" unicode="&#x141;" horiz-adv-x="389" 
d="M63 0v340l-53 -20v70l53 20v330h80v-302l92 35v-70l-92 -35v-298h224v-70h-304z" />
    <glyph glyph-name="lslash" unicode="&#x142;" horiz-adv-x="233" 
d="M78 0v341l-56 -21v65l56 20v335h78v-308l55 19v-64l-55 -20v-367h-78z" />
    <glyph glyph-name="OE" unicode="&#x152;" horiz-adv-x="732" 
d="M400 640v100h290v-70h-224v-245h161v-68h-161v-288h237v-69h-303v100q-45 -109 -147 -109t-158.5 94t-56.5 285t56.5 285t158.5 94t147 -109zM253 62q134 0 134 308q0 307 -134 307q-137 0 -137 -307q0 -308 137 -308z" />
    <glyph glyph-name="oe" unicode="&#x153;" horiz-adv-x="654" 
d="M204 -8q-81 0 -126.5 69.5t-45.5 202.5q0 134 45 203t127 69q90 0 131 -92q40 92 130 92q81 0 119 -74.5t38 -196.5v-21h-252q0 -187 97 -187q37 0 57.5 23.5t34.5 72.5l62 -18q-39 -143 -157 -143q-90 0 -129 91q-41 -91 -131 -91zM370 303h179q-3 167 -85 167
q-84 0 -94 -167zM204 56q94 0 94 208q0 206 -94 206q-97 0 -97 -206q0 -208 97 -208z" />
    <glyph glyph-name="Scaron" unicode="&#x160;" horiz-adv-x="442" 
d="M226 -11q-84 0 -131 49.5t-71 147.5l72 16q17 -72 47.5 -107.5t83.5 -35.5q50 0 76 28t26 76q0 41 -28.5 81.5t-69.5 76l-82.5 73t-70 87t-28.5 103.5q0 76 46.5 121.5t121.5 45.5q73 0 115 -46t65 -132l-71 -19q-17 65 -42.5 95.5t-68.5 30.5q-42 0 -65.5 -23.5
t-23.5 -67.5q0 -38 20.5 -74.5t51.5 -64l67.5 -60t67.5 -63t51.5 -73t20.5 -88.5q0 -79 -50 -128t-130 -49zM195 786l-90 157h49l68 -85l68 85h47l-91 -157h-51z" />
    <glyph glyph-name="scaron" unicode="&#x161;" horiz-adv-x="361" 
d="M180 -10q-115 0 -166 126l63 27q34 -90 102 -90q39 0 59.5 19t20.5 51q0 31 -23 56.5t-55.5 45.5t-64.5 43t-55 58.5t-23 81.5q0 59 42 94.5t98 35.5q107 0 150 -120l-63 -25q-25 80 -86 80q-31 0 -49.5 -17.5t-18.5 -45.5q0 -31 23 -57t55.5 -46.5t64.5 -43t55 -58
t23 -80.5q0 -60 -41 -97.5t-111 -37.5zM156 581l-90 157h49l68 -85l68 85h47l-91 -157h-51z" />
    <glyph glyph-name="Ydieresis" unicode="&#x178;" horiz-adv-x="420" 
d="M171 0v286l-160 454h79l122 -366h2l121 366h75l-161 -454v-286h-78zM240 787v86h74v-86h-74zM106 787v86h74v-86h-74z" />
    <glyph glyph-name="Zcaron" unicode="&#x17d;" horiz-adv-x="421" 
d="M26 0v60l277 610h-256v70h343v-62l-278 -609h278v-69h-364zM184 785l-90 157h49l68 -85l68 85h47l-91 -157h-51z" />
    <glyph glyph-name="zcaron" unicode="&#x17e;" horiz-adv-x="349" 
d="M26 0v52l203 412h-185v64h270v-53l-205 -412h214v-63h-297zM148 581l-90 157h49l68 -85l68 85h47l-91 -157h-51z" />
    <glyph glyph-name="florin" unicode="&#x192;" horiz-adv-x="275" 
d="M-33 -201q-26 0 -44 3l10 64q14 -3 29 -3q28 0 43.5 14.5t20.5 48.5l57 422h-64l9 64h64l29 206q9 68 43.5 96t93.5 28q9 0 39 -3l-11 -65q-18 2 -28 2q-27 0 -43 -13.5t-21 -47.5l-28 -203h80l-9 -64h-79l-60 -431q-9 -66 -40.5 -92t-90.5 -26z" />
    <glyph glyph-name="circumflex" unicode="&#x2c6;" horiz-adv-x="370" 
d="M68 579l91 158h51l90 -158h-47l-69 85l-67 -85h-49z" />
    <glyph glyph-name="caron" unicode="&#x2c7;" horiz-adv-x="370" 
d="M158 581l-90 157h49l68 -85l68 85h47l-91 -157h-51z" />
    <glyph glyph-name="breve" unicode="&#x2d8;" horiz-adv-x="364" 
d="M182 579q-103 0 -111 162h52q5 -55 18 -80t41 -25t41.5 25t18.5 80h50q-6 -162 -110 -162z" />
    <glyph glyph-name="dotaccent" unicode="&#x2d9;" horiz-adv-x="364" 
d="M133 584v86h85v-86h-85z" />
    <glyph glyph-name="ring" unicode="&#x2da;" horiz-adv-x="368" 
d="M183 566q-36 0 -57 29t-21 74q0 44 21 72.5t57 28.5t58 -28.5t22 -72.5q0 -45 -21.5 -74t-58.5 -29zM183 610q33 0 33 58q0 57 -33 57q-32 0 -32 -57q0 -58 32 -58z" />
    <glyph glyph-name="ogonek" unicode="&#x2db;" horiz-adv-x="364" 
d="M181 -190q-80 0 -80 78q0 30 18 60.5t44 51.5h40q-47 -42 -47 -98q0 -48 39 -48q27 0 61 23l22 -25q-48 -42 -97 -42z" />
    <glyph glyph-name="tilde" unicode="&#x2dc;" horiz-adv-x="367" 
d="M240 576q-26 0 -63 28t-49 28q-28 0 -28 -54h-47q0 119 74 119q26 0 62.5 -28t49.5 -28q27 0 27 54h47q0 -119 -73 -119z" />
    <glyph glyph-name="hungarumlaut" unicode="&#x2dd;" horiz-adv-x="367" 
d="M171 583l67 154h87l-101 -154h-53zM46 583l66 154h87l-98 -154h-55z" />
    <glyph glyph-name="pi" unicode="&#x3c0;" horiz-adv-x="559" 
d="M280 -14q-111 0 -181.5 110.5t-70.5 272.5q0 163 71 274t181 111t180.5 -110.5t70.5 -272.5q0 -163 -70.5 -274t-180.5 -111zM280 28q91 0 148.5 98.5t57.5 242.5q0 145 -58 244t-148 99t-148.5 -98.5t-58.5 -242.5q0 -145 58.5 -244t148.5 -99zM188 162v417h97
q109 0 109 -122q0 -125 -112 -125h-41v-170h-53zM241 381h43q30 0 44 17.5t14 57.5q0 39 -14 55.5t-44 16.5h-43v-147z" />
    <glyph glyph-name="endash" unicode="&#x2013;" horiz-adv-x="448" 
d="M40 280v67h367v-67h-367z" />
    <glyph glyph-name="emdash" unicode="&#x2014;" horiz-adv-x="580" 
d="M40 280v67h500v-67h-500z" />
    <glyph glyph-name="quoteleft" unicode="&#x2018;" horiz-adv-x="209" 
d="M61 528v96l45 116h36l-29 -109h35v-103h-87z" />
    <glyph glyph-name="quoteright" unicode="&#x2019;" horiz-adv-x="209" 
d="M68 528l29 110h-37v102h88v-95l-44 -117h-36z" />
    <glyph glyph-name="quotesinglbase" unicode="&#x201a;" horiz-adv-x="209" 
d="M68 -109l29 109h-37v102h88v-95l-44 -116h-36z" />
    <glyph glyph-name="quotedblleft" unicode="&#x201c;" horiz-adv-x="360" 
d="M212 528v96l44 116h35l-28 -109h36v-103h-87zM61 528v96l45 116h35l-29 -109h35v-103h-86z" />
    <glyph glyph-name="quotedblright" unicode="&#x201d;" horiz-adv-x="359" 
d="M219 528l28 110h-35v102h87v-95l-45 -117h-35zM68 528l28 110h-36v102h88v-95l-44 -117h-36z" />
    <glyph glyph-name="quotedblbase" unicode="&#x201e;" horiz-adv-x="359" 
d="M219 -109l28 109h-35v102h87v-95l-45 -116h-35zM68 -109l28 109h-36v102h88v-95l-44 -116h-36z" />
    <glyph glyph-name="dagger" unicode="&#x2020;" horiz-adv-x="401" 
d="M160 -200l13 619l-141 -10v73l141 -11l-13 269h80l-12 -269l140 11v-73l-140 10l12 -619h-80z" />
    <glyph glyph-name="daggerdbl" unicode="&#x2021;" horiz-adv-x="400" 
d="M160 -200l12 236l-136 -11v72l136 -10l-10 185l10 182l-136 -10v72l136 -11l-12 235h80l-13 -235l137 11v-72l-137 10l10 -182l-10 -185l137 10v-72l-137 11l13 -236h-80z" />
    <glyph glyph-name="bullet" unicode="&#x2022;" horiz-adv-x="463" 
d="M231 234q-50 0 -83 33t-33 83q0 51 33 84t83 33q51 0 84 -33t33 -84q0 -50 -33 -83t-84 -33z" />
    <glyph glyph-name="ellipsis" unicode="&#x2026;" horiz-adv-x="621" 
d="M471 0v102h89v-102h-89zM266 0v102h89v-102h-89zM60 0v102h90v-102h-90z" />
    <glyph glyph-name="perthousand" unicode="&#x2030;" horiz-adv-x="993" 
d="M163 314q-125 0 -125 215q0 220 127 220q122 0 122 -217q0 -218 -124 -218zM163 0l310 740h66l-309 -740h-67zM829 -8q-124 0 -124 215q0 220 125 220q124 0 124 -216q0 -101 -30 -160t-95 -59zM539 -8q-124 0 -124 215q0 220 124 220t124 -216q0 -219 -124 -219z
M164 372q55 0 55 159q0 158 -56 158t-56 -156q0 -161 57 -161zM830 50q56 0 56 159q0 80 -12.5 119.5t-44.5 39.5q-56 0 -56 -157q0 -161 57 -161zM539 50q57 0 57 159t-58 159q-56 0 -56 -157q0 -161 57 -161z" />
    <glyph glyph-name="guilsinglleft" unicode="&#x2039;" horiz-adv-x="219" 
d="M115 0l-96 264l96 262h72l-94 -262l94 -264h-72z" />
    <glyph glyph-name="guilsinglright" unicode="&#x203a;" horiz-adv-x="219" 
d="M33 0l92 264l-92 262h71l96 -262l-96 -264h-71z" />
    <glyph glyph-name="fraction" unicode="&#x2044;" horiz-adv-x="328" 
d="M-10 0l274 740h74l-274 -740h-74z" />
    <glyph glyph-name="Euro" unicode="&#x20ac;" horiz-adv-x="476" 
d="M264 -9q-81 0 -129 64.5t-60 214.5h-67v60h63v42v39h-63v60h67q24 278 188 278q74 0 114.5 -49t56.5 -154l-70 -10q-11 73 -33.5 108t-66.5 35q-100 0 -113 -208h159v-60h-162q-1 -12 -1 -38q0 -29 1 -43h162v-60h-159q8 -115 36.5 -163t76.5 -48q52 0 74.5 35.5
t34.5 116.5l69 -9q-7 -47 -18 -82t-31 -66t-52.5 -47t-76.5 -16z" />
    <glyph glyph-name="trademark" unicode="&#x2122;" horiz-adv-x="612" 
d="M277 303v437h67l77 -342l77 342h67v-437h-53v297l-68 -297h-48l-68 298v-298h-51zM102 303v381h-83v56h224v-56h-83v-381h-58z" />
    <glyph glyph-name="Omega" unicode="&#x2126;" horiz-adv-x="780" 
d="M194 566v39l163 -10l-6 145h80l-8 -145l164 10v-39h38l-10 -163l145 6v-80l-145 8l10 -164h-38v-38l-164 10l8 -145h-80l6 145l-163 -10v38h-39l10 164l-145 -8v80l145 -6l-10 163h39zM559 538l-136 8v-143h143zM357 403v143l-135 -8l-8 -135h143zM423 337v-143l136 8
l7 135h-143zM222 202l135 -8v143h-143z" />
    <glyph glyph-name="partialdiff" unicode="&#x2202;" horiz-adv-x="780" 
d="M194 566v39l163 -10l-6 145h80l-8 -145l164 10v-39h38l-10 -163l145 6v-80l-145 8l10 -164h-38v-38l-164 10l8 -145h-80l6 145l-163 -10v38h-39l10 164l-145 -8v80l145 -6l-10 163h39zM559 538l-136 8v-143h143zM357 403v143l-135 -8l-8 -135h143zM423 337v-143l136 8
l7 135h-143zM222 202l135 -8v143h-143z" />
    <glyph glyph-name="Delta" unicode="&#x2206;" horiz-adv-x="439" 
d="M300 625v90h77v-90h-77zM79 0v464h-64v64h64v88q0 125 123 125q15 0 29 -2v-64h-22q-55 0 -55 -61v-86h73v-64h-73v-464h-75zM276 -201q-26 0 -32 3v61q6 -2 22 -2q35 0 35 54v613h75v-609q0 -66 -23.5 -93t-76.5 -27z" />
    <glyph glyph-name="product" unicode="&#x220f;" horiz-adv-x="358" 
d="M179 290q-67 0 -110 66.5t-43 165.5t43.5 166t110.5 67q66 0 109 -66.5t43 -165.5q0 -98 -43 -165.5t-110 -67.5zM180 318q53 0 87 59t34 145t-34 145.5t-88 59.5t-88 -58.5t-34 -145.5q0 -86 34.5 -145.5t88.5 -59.5zM116 399v254h61q68 0 68 -75q0 -55 -36 -72l41 -106
h-39l-37 101h-22v-102h-36zM152 535h23q19 0 27 9.5t8 32.5q0 41 -35 41h-23v-83z" />
    <glyph glyph-name="summation" unicode="&#x2211;" horiz-adv-x="780" 
d="M194 566v39l163 -10l-6 145h80l-8 -145l164 10v-39h38l-10 -163l145 6v-80l-145 8l10 -164h-38v-38l-164 10l8 -145h-80l6 145l-163 -10v38h-39l10 164l-145 -8v80l145 -6l-10 163h39zM559 538l-136 8v-143h143zM357 403v143l-135 -8l-8 -135h143zM423 337v-143l136 8
l7 135h-143zM222 202l135 -8v143h-143z" />
    <glyph glyph-name="minus" unicode="&#x2212;" horiz-adv-x="455" 
d="M42 293v68h371v-68h-371z" />
    <glyph glyph-name="radical" unicode="&#x221a;" horiz-adv-x="420" 
d="M143 -2l-127 530h74q94 -412 95 -421h2l146 632h70l-178 -741h-82z" />
    <glyph glyph-name="infinity" unicode="&#x221e;" horiz-adv-x="661" 
d="M523 625v90h77v-90h-77zM79 0v464h-64v64h64v88q0 125 125 125q16 0 28 -2v-65q-2 1 -22 1q-56 0 -56 -61v-86h147v86q0 63 32.5 95t91.5 32q16 0 28 -2v-64h-21q-56 0 -56 -61v-86h74v-64h-74v-464h-75v464h-147v-464h-75zM524 0v528h75v-528h-75z" />
    <glyph glyph-name="integral" unicode="&#x222b;" horiz-adv-x="780" 
d="M194 566v39l163 -10l-6 145h80l-8 -145l164 10v-39h38l-10 -163l145 6v-80l-145 8l10 -164h-38v-38l-164 10l8 -145h-80l6 145l-163 -10v38h-39l10 164l-145 -8v80l145 -6l-10 163h39zM559 538l-136 8v-143h143zM357 403v143l-135 -8l-8 -135h143zM423 337v-143l136 8
l7 135h-143zM222 202l135 -8v143h-143z" />
    <glyph glyph-name="approxequal" unicode="&#x2248;" horiz-adv-x="780" 
d="M194 566v39l163 -10l-6 145h80l-8 -145l164 10v-39h38l-10 -163l145 6v-80l-145 8l10 -164h-38v-38l-164 10l8 -145h-80l6 145l-163 -10v38h-39l10 164l-145 -8v80l145 -6l-10 163h39zM559 538l-136 8v-143h143zM357 403v143l-135 -8l-8 -135h143zM423 337v-143l136 8
l7 135h-143zM222 202l135 -8v143h-143z" />
    <glyph glyph-name="notequal" unicode="&#x2260;" horiz-adv-x="473" 
d="M79 0v464l-64 1v63h64v88q0 125 125 125q16 0 28 -2v-65q-2 1 -22 1q-56 0 -56 -61v-86h147v86q0 127 128 127q18 0 30 -2v-65q-17 1 -24 1q-59 0 -59 -61v-86h80v-64h-80v-464h-75v464h-147v-464h-75z" />
    <glyph glyph-name="lessequal" unicode="&#x2264;" horiz-adv-x="780" 
d="M194 566v39l163 -10l-6 145h80l-8 -145l164 10v-39h38l-10 -163l145 6v-80l-145 8l10 -164h-38v-38l-164 10l8 -145h-80l6 145l-163 -10v38h-39l10 164l-145 -8v80l145 -6l-10 163h39zM559 538l-136 8v-143h143zM357 403v143l-135 -8l-8 -135h143zM423 337v-143l136 8
l7 135h-143zM222 202l135 -8v143h-143z" />
    <glyph glyph-name="greaterequal" unicode="&#x2265;" horiz-adv-x="780" 
d="M194 566v39l163 -10l-6 145h80l-8 -145l164 10v-39h38l-10 -163l145 6v-80l-145 8l10 -164h-38v-38l-164 10l8 -145h-80l6 145l-163 -10v38h-39l10 164l-145 -8v80l145 -6l-10 163h39zM559 538l-136 8v-143h143zM357 403v143l-135 -8l-8 -135h143zM423 337v-143l136 8
l7 135h-143zM222 202l135 -8v143h-143z" />
    <glyph glyph-name="lozenge" unicode="&#x25ca;" horiz-adv-x="780" 
d="M194 566v39l163 -10l-6 145h80l-8 -145l164 10v-39h38l-10 -163l145 6v-80l-145 8l10 -164h-38v-38l-164 10l8 -145h-80l6 145l-163 -10v38h-39l10 164l-145 -8v80l145 -6l-10 163h39zM559 538l-136 8v-143h143zM357 403v143l-135 -8l-8 -135h143zM423 337v-143l136 8
l7 135h-143zM222 202l135 -8v143h-143z" />
    <glyph glyph-name="apple" unicode="&#xf8ff;" horiz-adv-x="780" 
d="M194 566v39l163 -10l-6 145h80l-8 -145l164 10v-39h38l-10 -163l145 6v-80l-145 8l10 -164h-38v-38l-164 10l8 -145h-80l6 145l-163 -10v38h-39l10 164l-145 -8v80l145 -6l-10 163h39zM559 538l-136 8v-143h143zM357 403v143l-135 -8l-8 -135h143zM423 337v-143l136 8
l7 135h-143zM222 202l135 -8v143h-143z" />
    <glyph glyph-name="fi" unicode="&#xfb01;" horiz-adv-x="439" 
d="M300 625v90h77v-90h-77zM79 0v464h-64v64h64v88q0 125 123 125q15 0 29 -2v-64h-22q-55 0 -55 -61v-86h73v-64h-73v-464h-75zM301 0v528h75v-528h-75z" />
    <glyph glyph-name="fl" unicode="&#xfb02;" horiz-adv-x="439" 
d="M79 0v464h-64v64h64v88q0 125 123 125q15 0 29 -2v-64h-22q-55 0 -55 -61v-86h73v-64h-73v-464h-75zM301 0v739h75v-739h-75z" />
    <glyph glyph-name="NUL" horiz-adv-x="0" 
 />
  </font>
</defs>
</svg>
